<svg width="40" height="40" viewBox="0 0 40 40" fill="none" xmlns="http://www.w3.org/2000/svg">
<path d="M30.625 0H9.375C4.19733 0 0 4.19733 0 9.375V30.625C0 35.8027 4.19733 40 9.375 40H30.625C35.8027 40 40 35.8027 40 30.625V9.375C40 4.19733 35.8027 0 30.625 0Z" fill="#330000"/>
<path d="M19.3331 23.8014H13.1331L11.8664 27.7182C11.8331 27.8682 11.6998 27.9682 11.5498 27.9514H8.41639C8.2331 27.9514 8.1831 27.8514 8.2331 27.6514L13.5998 12.2014C13.6498 12.0349 13.6998 11.8514 13.7664 11.6514C13.8331 11.3014 13.8664 10.9349 13.8664 10.5682C13.8498 10.4849 13.9164 10.4014 13.9998 10.3849H18.3164C18.4498 10.3849 18.5164 10.4349 18.5331 10.5182L24.6164 27.6849C24.6664 27.8682 24.6164 27.9514 24.4498 27.9514H20.9664C20.8498 27.9682 20.7331 27.8849 20.6998 27.7682L19.3331 23.8014ZM14.0998 20.4182H18.3331C18.2331 20.0682 18.0998 19.6514 17.9498 19.2182C17.7998 18.7682 17.6498 18.2849 17.4998 17.7849C17.3331 17.2682 17.1831 16.7682 17.0164 16.2514C16.8498 15.7349 16.6998 15.2514 16.5664 14.7682C16.4331 14.3016 16.3164 13.8682 16.1998 13.4682H16.1664C16.0164 14.1849 15.8331 14.9016 15.5998 15.6182C15.3498 16.4182 15.0998 17.2514 14.8331 18.0849C14.6179 18.8715 14.3733 19.6498 14.0998 20.4182ZM28.3331 13.3014C27.7831 13.3182 27.2498 13.1014 26.8498 12.7182C26.4665 12.3014 26.2665 11.7514 26.2831 11.1849C26.2665 10.6182 26.4831 10.0849 26.8831 9.70144C27.2831 9.31816 27.8165 9.11816 28.3665 9.11816C29.0165 9.11816 29.5165 9.31816 29.8831 9.70144C30.2525 10.1055 30.4498 10.6377 30.4331 11.1849C30.4498 11.7514 30.2498 12.3014 29.8498 12.7182C29.4665 13.1182 28.8998 13.3349 28.3331 13.3014ZM26.4665 27.7682V14.9349C26.4665 14.7682 26.5331 14.7014 26.6831 14.7014H29.9831C30.1331 14.7014 30.1998 14.7849 30.1998 14.9349V27.7682C30.1998 27.9514 30.1331 28.0349 29.9831 28.0349H26.7165C26.5498 28.0349 26.4665 27.9349 26.4665 27.7682Z" fill="#FF9A00"/>
</svg>
