<svg width="30" height="24" viewBox="0 0 30 24" fill="none" xmlns="http://www.w3.org/2000/svg">
<path d="M2.85714 9.88235C2.85714 13.3412 5.37143 16.1929 8.68571 16.8141L6.55714 14.7106L8.57143 12.7059L14.2857 18.3671L8.57143 24L6.55714 22.0094L8.81429 19.7788V19.6941C6.38573 19.4054 4.14821 18.2478 2.52427 16.4401C0.900332 14.6324 0.00238433 12.2996 0 9.88235C0 4.41882 4.47143 0 10 0H14.2857V2.82353H10C6.05714 2.82353 2.85714 5.98588 2.85714 9.88235ZM30 9.88235V0H17.1429V9.88235H30ZM27.1429 7.05882H20V2.82353H27.1429V7.05882ZM17.1429 12.7059H30V22.5882H17.1429V12.7059Z" fill="black" fill-opacity="0.7"/>
</svg>
