<svg width="30" height="30" viewBox="0 0 30 30" fill="none" xmlns="http://www.w3.org/2000/svg">
<rect opacity="0.7" x="1" y="1" width="28" height="28" rx="14" stroke="black" stroke-opacity="0.75" stroke-width="2"/>
<path d="M21 16C21.5523 16 22 15.5523 22 15C22 14.4477 21.5523 14 21 14L21 16ZM8.29289 14.2929C7.90237 14.6834 7.90237 15.3166 8.29289 15.7071L14.6569 22.0711C15.0474 22.4616 15.6805 22.4616 16.0711 22.0711C16.4616 21.6805 16.4616 21.0474 16.0711 20.6569L10.4142 15L16.0711 9.34315C16.4616 8.95262 16.4616 8.31946 16.0711 7.92893C15.6805 7.53841 15.0474 7.53841 14.6569 7.92893L8.29289 14.2929ZM21 14L9 14L9 16L21 16L21 14Z" fill="black" fill-opacity="0.7"/>
</svg>
