<svg width="40" height="40" viewBox="0 0 40 40" fill="none" xmlns="http://www.w3.org/2000/svg">
<g clip-path="url(#clip0_384_121)">
<path d="M30.625 0H9.375C4.19733 0 0 4.19733 0 9.375V30.625C0 35.8027 4.19733 40 9.375 40H30.625C35.8027 40 40 35.8027 40 30.625V9.375C40 4.19733 35.8027 0 30.625 0Z" fill="#0277BD"/>
<path d="M8.39891 16.0392L8.84609 21.0302H20.015V16.0392H8.39891ZM20.0148 5.9375H7.5L7.95375 10.9284H20.0148V5.9375ZM20.0148 34.1939V29.0012L19.993 29.007L14.4345 27.5062L14.0792 23.5256H9.06906L9.76828 31.3622L19.9919 34.2003L20.0148 34.1939Z" fill="#EBEBEB"/>
<path d="M26.1438 21.0302L25.5645 27.503L19.998 29.0055V34.1978L30.2298 31.3622L30.3048 30.5189L31.4776 17.3795L31.5993 16.0392L32.5004 5.9375H19.998V10.9284H27.0307L26.5766 16.0392H19.998V21.0302H26.1438Z" fill="white"/>
</g>
<defs>
<clipPath id="clip0_384_121">
<rect width="40" height="40" fill="white"/>
</clipPath>
</defs>
</svg>
