<svg width="41" height="40" viewBox="0 0 41 40" fill="none" xmlns="http://www.w3.org/2000/svg">
<path d="M20.4651 0C17.7776 0 15.1164 0.530159 12.6335 1.56021C10.1505 2.59025 7.89446 4.10002 5.99409 6.0033C2.15614 9.84714 0 15.0605 0 20.4965C0 29.556 5.87349 37.2422 13.9981 39.9683C15.0214 40.1322 15.3488 39.4968 15.3488 38.9434V35.4795C9.68 36.7093 8.47256 32.733 8.47256 32.733C7.53116 30.3554 6.20093 29.72 6.20093 29.72C4.33861 28.4492 6.34419 28.4902 6.34419 28.4902C8.3907 28.6337 9.47535 30.6013 9.47535 30.6013C11.2558 33.7168 14.2642 32.7945 15.4307 32.3025C15.6149 30.9703 16.147 30.0684 16.72 29.556C12.1767 29.0436 7.40837 27.2809 7.40837 19.4717C7.40837 17.1966 8.18605 15.3724 9.51628 13.9172C9.31163 13.4047 8.59535 11.2731 9.72093 8.50606C9.72093 8.50606 11.44 7.95266 15.3488 10.5967C16.9656 10.1458 18.7256 9.92033 20.4651 9.92033C22.2047 9.92033 23.9647 10.1458 25.5814 10.5967C29.4902 7.95266 31.2093 8.50606 31.2093 8.50606C32.3349 11.2731 31.6186 13.4047 31.414 13.9172C32.7442 15.3724 33.5219 17.1966 33.5219 19.4717C33.5219 27.3014 28.733 29.0231 24.1693 29.5355C24.906 30.1709 25.5814 31.4212 25.5814 33.3274V38.9434C25.5814 39.4968 25.9088 40.1527 26.9526 39.9683C35.0772 37.2217 40.9302 29.556 40.9302 20.4965C40.9302 17.8049 40.4009 15.1396 39.3724 12.6529C38.344 10.1661 36.8365 7.90658 34.9361 6.0033C33.0358 4.10002 30.7797 2.59025 28.2968 1.56021C25.8138 0.530159 23.1526 0 20.4651 0Z" fill="black"/>
</svg>
