<svg width="42" height="40" viewBox="0 0 42 40" fill="none" xmlns="http://www.w3.org/2000/svg">
<path d="M2.62211 9.39424C-1.03354 14.6777 -0.578445 21.5524 2.21409 27.1668C2.28038 27.3014 2.34999 27.4338 2.4186 27.5661L2.54919 27.8191L2.63073 27.9647L2.77624 28.2267C2.86308 28.3804 2.95191 28.5334 3.04273 28.6864L3.19487 28.9384C3.29564 29.102 3.39872 29.2637 3.50412 29.425L3.63604 29.6297C3.78155 29.848 3.93038 30.066 4.08417 30.28L4.0971 30.2966L4.17267 30.3993C4.30559 30.5836 4.44248 30.7656 4.58103 30.9456L4.73483 31.1423C4.85846 31.2986 4.98408 31.4539 5.11202 31.6086L5.25621 31.7819C5.42823 31.986 5.60348 32.1874 5.7819 32.3859L5.79284 32.3969L5.81306 32.4195C5.98842 32.6109 6.16654 32.7997 6.34737 32.9858L6.51873 33.1595C6.65894 33.3015 6.80146 33.4411 6.94532 33.5801L7.12 33.7468C7.31224 33.9291 7.50648 34.1078 7.70469 34.2824L7.71397 34.2898L7.81573 34.3771C7.9904 34.5291 8.16807 34.6801 8.34705 34.8281L8.56714 35.0044C8.71331 35.1224 8.86114 35.2384 9.00997 35.3524L9.24663 35.5334C9.41103 35.655 9.57643 35.7747 9.74349 35.8917L9.92446 36.0207L9.97418 36.0564C10.1326 36.166 10.2947 36.2717 10.4568 36.3773L10.6656 36.5173C10.9142 36.6753 11.1661 36.8317 11.421 36.9826L11.6298 37.101C11.8171 37.2096 12.0057 37.3163 12.1966 37.4206C12.3 37.4766 12.4061 37.5296 12.5102 37.5833C12.6451 37.6543 12.779 37.7263 12.9162 37.7953L13.01 37.8409L13.1761 37.9216C13.3885 38.0236 13.6026 38.1239 13.8191 38.2206L13.955 38.2819C14.2031 38.3911 14.4532 38.4956 14.7051 38.5956L14.8877 38.6679C15.1211 38.7582 15.3577 38.8476 15.5954 38.9316L15.6842 38.9626C15.9451 39.0542 16.2082 39.1392 16.4734 39.2222L16.664 39.2795C16.9338 39.3612 17.2006 39.4589 17.4787 39.5105C35.1583 42.7527 40.294 28.8267 40.294 28.8267C35.9807 34.4774 28.3247 35.968 21.0707 34.3084C20.7959 34.2461 20.5295 34.1598 20.2613 34.0801L20.0594 34.0185C19.7982 33.9379 19.5383 33.8529 19.2799 33.7635L19.1728 33.7245C18.9424 33.6426 18.7132 33.5571 18.4854 33.4681L18.2924 33.3918C18.0432 33.2928 17.7953 33.1895 17.5503 33.0815L17.4022 33.0155C17.1924 32.9202 16.9836 32.8225 16.776 32.7225L16.5951 32.6352C16.4323 32.5555 16.2712 32.4709 16.1108 32.3875C16.0034 32.3305 15.894 32.2769 15.7876 32.2175C15.5923 32.1118 15.3988 32.0026 15.2072 31.8902L15.0113 31.7802C14.7569 31.6292 14.505 31.4739 14.2556 31.3146L14.0518 31.1779C13.8705 31.061 13.6912 30.9411 13.5138 30.8183L13.3408 30.6959C13.17 30.5745 13.0005 30.4513 12.8323 30.3263L12.6073 30.155C12.4527 30.0368 12.2998 29.9166 12.1485 29.7943L11.944 29.6293C11.7514 29.4705 11.5609 29.309 11.3726 29.145L11.31 29.092C11.1071 28.912 10.9069 28.729 10.7094 28.543L10.54 28.3794C10.3938 28.2394 10.25 28.0984 10.1084 27.9537L9.93938 27.7841C9.75975 27.5992 9.58317 27.4114 9.40971 27.2208L9.38352 27.1928C9.20073 26.9912 9.0216 26.7863 8.84623 26.5781L8.70569 26.4101C8.57467 26.2516 8.44572 26.0914 8.31888 25.9295L8.17735 25.7522C8.02569 25.555 7.87685 25.3556 7.73087 25.1542C3.70366 19.6298 2.25651 12.0108 5.4753 5.75374M13.9702 4.94244C11.3262 8.76827 11.47 13.89 13.5324 17.9362C13.8775 18.6164 14.2682 19.2722 14.7018 19.8991C15.0979 20.4701 15.537 21.1494 16.0627 21.608C16.255 21.8197 16.4528 22.0263 16.656 22.2273L16.8125 22.3823C17.0099 22.5758 17.2119 22.7646 17.4184 22.9483L17.4429 22.9696L17.4489 22.9756C17.6798 23.1779 17.9158 23.3742 18.1565 23.5646L18.3173 23.6906C18.5594 23.8781 18.8062 24.0594 19.0575 24.2342L19.079 24.2506C19.1904 24.3279 19.3037 24.3999 19.4168 24.4746L19.5768 24.5809C19.7572 24.6972 19.9398 24.8105 20.1254 24.9192L20.2033 24.9645C20.3634 25.0572 20.5255 25.1485 20.6882 25.2372L20.8609 25.3275C20.9733 25.3865 21.0856 25.4468 21.2 25.5042L21.2514 25.5275C21.4844 25.6428 21.7194 25.7542 21.9594 25.8592L22.1158 25.9238C22.3077 26.0058 22.5016 26.0858 22.6959 26.1605L22.9445 26.2521C23.1211 26.3181 23.2985 26.3781 23.4771 26.4385L23.7181 26.5161C23.9723 26.5955 24.2236 26.6958 24.4884 26.7401C38.1388 29.0143 41.2903 18.4452 41.2903 18.4452C38.4497 22.5593 32.9482 24.5226 27.0777 22.99C26.8182 22.9213 26.5604 22.8464 26.3044 22.7653L26.0721 22.6896C25.8907 22.6306 25.7105 22.5682 25.5315 22.5023L25.2875 22.411C25.0922 22.3356 24.8982 22.2569 24.7055 22.175L24.5487 22.1083C24.3087 22.0033 24.0713 21.8922 23.8367 21.7753C23.7164 21.7163 23.5981 21.654 23.4794 21.5927L23.2733 21.486C23.1212 21.4031 22.9706 21.3176 22.8215 21.2294L22.7134 21.1677C22.5288 21.0594 22.3463 20.9474 22.1662 20.8317L22.0011 20.7211C21.8822 20.6437 21.7641 20.5652 21.6468 20.4854C21.3966 20.3105 21.1506 20.1295 20.909 19.9428L20.7429 19.8111C18.1735 17.7712 16.1363 14.9827 15.1681 11.8211C14.1532 8.54261 14.372 4.86211 16.1303 1.87491M23.5146 1.61659C21.9561 3.92316 21.8029 6.78769 22.8845 9.33491C24.025 12.0391 26.3618 14.16 29.0894 15.1663C29.2017 15.208 29.3144 15.2453 29.4281 15.2843L29.5776 15.332C29.7384 15.3826 29.8978 15.4416 30.0638 15.4733C37.6012 16.9379 39.6456 11.5838 40.1895 10.7955C38.399 13.3884 35.3894 14.0107 31.6966 13.1094C31.4049 13.0384 31.0844 12.9324 30.8033 12.8321C30.4422 12.7031 30.0881 12.5552 29.7423 12.3891C29.0863 12.0715 28.4632 11.6892 27.8822 11.2478C24.5779 8.72627 22.5252 3.91682 24.6813 0" fill="#0868AC"/>
</svg>
