<svg width="40" height="40" viewBox="0 0 40 40" fill="none" xmlns="http://www.w3.org/2000/svg">
<path d="M0 0H40V40H0V0Z" fill="#F5DE19"/>
<path d="M26.8679 31.2507C27.2087 31.943 27.7382 32.5249 28.3953 32.9293C29.0525 33.3337 29.8106 33.5441 30.5822 33.5364C32.1393 33.5364 33.135 32.7578 33.135 31.6793C33.135 30.3936 32.1122 29.9336 30.3979 29.1836L29.4579 28.7807C26.7436 27.625 24.9436 26.1778 24.9436 23.1178C24.9436 20.2993 27.0864 18.1521 30.4479 18.1521C31.536 18.0735 32.6232 18.3171 33.5739 18.8524C34.5245 19.3876 35.2965 20.191 35.7936 21.1621L32.855 23.0407C32.6636 22.5592 32.3304 22.1472 31.8994 21.8594C31.4685 21.5716 30.9603 21.4216 30.4422 21.4293C30.2161 21.4066 29.9878 21.4313 29.7718 21.5018C29.5558 21.5723 29.3569 21.687 29.1877 21.8386C29.0185 21.9902 28.8827 22.1754 28.7891 22.3823C28.6954 22.5893 28.6458 22.8135 28.6436 23.0407C28.6436 24.1678 29.3422 24.625 30.955 25.3264L31.895 25.7293C35.0893 27.0993 36.895 28.495 36.895 31.6336C36.895 35.0178 34.2364 36.8721 30.6664 36.8721C29.2754 36.9608 27.8885 36.6449 26.673 35.9628C25.4576 35.2807 24.4654 34.2613 23.8164 33.0278L26.8679 31.2507ZM13.5893 31.5764C14.1793 32.6236 14.7164 33.5093 16.0079 33.5093C17.2422 33.5093 18.0222 33.0264 18.0222 31.1478V18.3664H21.7807V31.1978C21.7807 35.0893 19.495 36.8607 16.1679 36.8607C14.9918 36.925 13.8238 36.6319 12.8174 36.02C11.811 35.408 11.0134 34.5059 10.5293 33.4321L13.5893 31.5764Z" fill="black"/>
</svg>
