<svg width="20" height="19" viewBox="0 0 20 19" fill="none" xmlns="http://www.w3.org/2000/svg">
<circle cx="9.96837" cy="9.46837" r="9.46837" fill="#FEE500"/>
<path d="M9.99333 4.56982C7.04753 4.56982 4.67188 6.47032 4.67188 8.77756C4.67188 10.2752 5.66015 11.5865 7.14255 12.3353L6.64081 14.2093C6.63135 14.2373 6.6299 14.2675 6.63661 14.2963C6.64333 14.3252 6.65794 14.3516 6.67882 14.3727C6.70927 14.3995 6.74845 14.4144 6.78905 14.4145C6.82272 14.4118 6.85466 14.3985 6.88028 14.3765L9.03927 12.9207C9.35796 12.9647 9.67922 12.9875 10.0009 12.9891C12.9429 12.9891 15.3224 11.0886 15.3224 8.77756C15.3224 6.46652 12.9353 4.56982 9.99333 4.56982Z" fill="#392020"/>
<path d="M11.8967 7.84183C11.8944 7.75677 11.9243 7.67399 11.9803 7.60997C12.0373 7.5582 12.1104 7.52764 12.1872 7.52348C12.2641 7.51933 12.34 7.54182 12.4023 7.58714C12.4562 7.63134 12.4926 7.69333 12.5049 7.76197C12.5068 7.78855 12.5068 7.81525 12.5049 7.84183V8.77306L13.4665 7.66314C13.5036 7.62528 13.543 7.58977 13.5844 7.55675C13.6234 7.5335 13.6682 7.52162 13.7136 7.52251C13.78 7.52214 13.845 7.54204 13.8999 7.57953C13.9257 7.59694 13.9478 7.61939 13.9648 7.64551C13.9817 7.67164 13.9933 7.7009 13.9987 7.73158C14.0002 7.73911 14.0002 7.74689 13.9987 7.75441C13.9968 7.76318 13.9968 7.77223 13.9987 7.781C13.9986 7.821 13.9881 7.8603 13.9683 7.89505C13.9481 7.93184 13.9239 7.96623 13.8961 7.99764L13.2651 8.68945L14.0253 9.86777V9.90577C14.0648 9.96024 14.0955 10.0205 14.1165 10.0845V10.1034C14.1209 10.1475 14.1146 10.1919 14.098 10.233C14.0815 10.274 14.0552 10.3104 14.0215 10.3391C13.9581 10.387 13.8805 10.4125 13.801 10.4113C13.7482 10.4135 13.6958 10.4017 13.649 10.3771C13.5984 10.3431 13.5567 10.2975 13.5274 10.2441L12.8204 9.10375L12.4821 9.45727V10.092C12.4844 10.1771 12.4545 10.2599 12.3985 10.3239C12.3684 10.3532 12.3327 10.3762 12.2935 10.3912C12.2542 10.4062 12.2124 10.4131 12.1704 10.4113C12.1003 10.4128 12.0318 10.39 11.9765 10.3467C11.9228 10.3039 11.8864 10.2432 11.8739 10.1757C11.8702 10.1479 11.8702 10.1198 11.8739 10.092L11.8967 7.84183Z" fill="#FEE500"/>
<path d="M9.86557 7.8421C9.8617 7.7568 9.89177 7.67344 9.94919 7.61024C9.97838 7.5808 10.0134 7.55779 10.052 7.54273C10.0907 7.52767 10.132 7.52086 10.1734 7.52278C10.2447 7.52195 10.3141 7.54468 10.3711 7.58741C10.4239 7.632 10.459 7.69402 10.4699 7.76225C10.4737 7.78872 10.4737 7.81562 10.4699 7.8421V9.84145H11.5152C11.5877 9.8405 11.6589 9.86025 11.7205 9.89843C11.7481 9.91549 11.7719 9.93821 11.7903 9.96506C11.8086 9.99191 11.8211 10.0223 11.8269 10.0543C11.8269 10.0543 11.8269 10.0923 11.8269 10.1113C11.8287 10.1492 11.8214 10.1869 11.8055 10.2213C11.7896 10.2557 11.7657 10.2858 11.7357 10.309C11.6694 10.357 11.5894 10.3823 11.5076 10.3812H10.2229C10.141 10.3864 10.0597 10.3651 9.991 10.3204C9.92954 10.2744 9.88859 10.2062 9.87697 10.1303C9.87418 10.0886 9.87418 10.0466 9.87697 10.0049L9.86557 7.8421Z" fill="#FEE500"/>
<path d="M8.19433 7.72047C8.21104 7.65792 8.25031 7.60376 8.30456 7.56842C8.36236 7.53566 8.42823 7.51985 8.49461 7.52281H8.63905C8.70948 7.52029 8.77923 7.5374 8.8405 7.57223C8.90543 7.61589 8.95156 7.68237 8.96974 7.75847L9.72995 9.90607C9.74966 9.9621 9.76615 10.0192 9.77936 10.0771C9.78066 10.1012 9.78066 10.1253 9.77936 10.1493C9.78064 10.1864 9.77383 10.2233 9.75938 10.2574C9.74494 10.2915 9.72322 10.3221 9.69574 10.347C9.6691 10.3743 9.63714 10.3958 9.60182 10.4102C9.5665 10.4246 9.5286 10.4315 9.49048 10.4306C9.43185 10.4364 9.37297 10.4224 9.32332 10.3907C9.27368 10.3589 9.23615 10.3114 9.2168 10.2558L9.05716 9.78826H8.05749L7.89784 10.2558C7.87896 10.3125 7.84099 10.361 7.79039 10.3928C7.73979 10.4247 7.67971 10.4381 7.62037 10.4306C7.55609 10.4323 7.49313 10.4122 7.44172 10.3736C7.39162 10.3338 7.35783 10.277 7.34669 10.214C7.34468 10.1925 7.34468 10.1708 7.34669 10.1493C7.34017 10.1116 7.34017 10.0731 7.34669 10.0353C7.34669 9.99353 7.3733 9.94788 7.3885 9.90607L8.19433 7.72047ZM8.57443 8.21843L8.21333 9.35874H8.93173L8.57443 8.21843Z" fill="#FEE500"/>
<path d="M6.53525 8.11274H5.9537C5.88161 8.11483 5.81042 8.09637 5.74844 8.05952C5.72092 8.04227 5.69726 8.01952 5.67894 7.9927C5.66063 7.96588 5.64805 7.93557 5.64201 7.90366C5.64016 7.88343 5.64016 7.86311 5.64201 7.84288C5.6402 7.80502 5.64755 7.76727 5.66343 7.73286C5.67931 7.69846 5.70326 7.6684 5.73323 7.64522C5.7995 7.59722 5.87948 7.57187 5.9613 7.57297H7.71358C7.78623 7.57042 7.8579 7.59034 7.91883 7.63C7.947 7.64648 7.97116 7.66903 7.98957 7.69598C8.00797 7.72293 8.02016 7.75362 8.02526 7.78585C8.02712 7.80481 8.02712 7.82392 8.02526 7.84288C8.02705 7.88128 8.01972 7.91954 8.00387 7.95456C7.98801 7.98958 7.96408 8.02031 7.93404 8.0443C7.86938 8.09223 7.79017 8.11642 7.70977 8.11274H7.14722V10.1121C7.14951 10.1547 7.14291 10.1973 7.12786 10.2372C7.11282 10.2771 7.08964 10.3135 7.0598 10.3439C7.03118 10.3731 6.99679 10.3959 6.95882 10.411C6.92085 10.426 6.88015 10.433 6.83934 10.4314C6.76795 10.4334 6.69808 10.4106 6.64168 10.3668C6.58799 10.324 6.55155 10.2632 6.53906 10.1957C6.5353 10.168 6.5353 10.1398 6.53906 10.1121L6.53525 8.11274Z" fill="#FEE500"/>
</svg>
