<svg width="20" height="16" viewBox="0 0 20 16" fill="none" xmlns="http://www.w3.org/2000/svg">
<path d="M1.91667 15.3333C1.38958 15.3333 0.938528 15.1458 0.5635 14.7708C0.188472 14.3958 0.000638889 13.9444 0 13.4167V1.91667C0 1.38958 0.187833 0.938528 0.5635 0.5635C0.939167 0.188472 1.39022 0.000638889 1.91667 0H17.25C17.7771 0 18.2285 0.187833 18.6041 0.5635C18.9798 0.939166 19.1673 1.39022 19.1667 1.91667V13.4167C19.1667 13.9437 18.9792 14.3951 18.6041 14.7708C18.2291 15.1465 17.7777 15.334 17.25 15.3333H1.91667ZM9.58333 8.625L17.25 3.83333V1.91667L9.58333 6.70833L1.91667 1.91667V3.83333L9.58333 8.625Z" fill="black"/>
</svg>
