<svg width="30" height="35" viewBox="0 0 30 35" fill="none" xmlns="http://www.w3.org/2000/svg">
<path d="M27 0H3V2.91667H27V0ZM3 35H27V32.0833H3V35ZM27 5.83333H3C1.35 5.83333 0 7.14583 0 8.75V26.25C0 27.8542 1.35 29.1667 3 29.1667H27C28.65 29.1667 30 27.8542 30 26.25V8.75C30 7.14583 28.65 5.83333 27 5.83333ZM15 9.84375C16.86 9.84375 18.375 11.3167 18.375 13.125C18.375 14.9333 16.86 16.4062 15 16.4062C13.14 16.4062 11.625 14.9333 11.625 13.125C11.625 11.3167 13.14 9.84375 15 9.84375ZM22.5 24.7917H7.5V22.6042C7.5 20.1688 12.495 18.9583 15 18.9583C17.505 18.9583 22.5 20.1688 22.5 22.6042V24.7917Z" fill="black" fill-opacity="0.7"/>
</svg>
