<svg width="40" height="40" viewBox="0 0 40 40" fill="none" xmlns="http://www.w3.org/2000/svg">
<path d="M30.625 0H9.375C4.19733 0 0 4.19733 0 9.375V30.625C0 35.8027 4.19733 40 9.375 40H30.625C35.8027 40 40 35.8027 40 30.625V9.375C40 4.19733 35.8027 0 30.625 0Z" fill="#001E36"/>
<path d="M8.96484 27.7112V10.6269C8.96484 10.5107 9.01499 10.4443 9.13205 10.4443C9.41615 10.4443 9.68364 10.4443 10.068 10.4277C10.4692 10.411 10.8871 10.411 11.3384 10.3945C11.7897 10.3779 12.2744 10.3779 12.7926 10.3612C13.3107 10.3447 13.8121 10.3447 14.3136 10.3447C15.6843 10.3447 16.8209 10.5107 17.757 10.8593C18.5961 11.1424 19.3612 11.6074 19.9968 12.2208C20.5354 12.7576 20.9515 13.403 21.217 14.1135C21.4677 14.8108 21.6014 15.5248 21.6014 16.2719C21.6014 17.6997 21.2672 18.8785 20.5985 19.8083C19.9298 20.738 18.9939 21.4354 17.9074 21.8338C16.7707 22.2489 15.5171 22.3984 14.1466 22.3984C13.7454 22.3984 13.4779 22.3984 13.3107 22.3817C13.1437 22.3651 12.9095 22.3651 12.5921 22.3651V27.6946C12.6087 27.8108 12.5251 27.9104 12.4081 27.9271H9.16542C9.03176 27.9271 8.96484 27.8606 8.96484 27.7112ZM12.6087 13.6486V19.2271C12.8428 19.2438 13.06 19.2604 13.2606 19.2604H14.1466C14.7984 19.2604 15.4503 19.1608 16.0687 18.9616C16.6037 18.8122 17.0716 18.4967 17.4394 18.0815C17.7904 17.6666 17.9576 17.102 17.9576 16.3715C17.9733 15.8527 17.8399 15.3401 17.573 14.8938C17.2889 14.4622 16.8878 14.1302 16.4031 13.9474C15.7846 13.6984 15.1159 13.5988 14.4307 13.6154C13.9961 13.6154 13.6116 13.6154 13.2941 13.6321C12.9597 13.6154 12.7257 13.6321 12.6087 13.6486ZM32.0316 18.2145C31.5301 17.9488 30.9953 17.7662 30.4269 17.6499C29.8084 17.5171 29.1901 17.434 28.5548 17.434C28.2206 17.4175 27.8695 17.4673 27.5519 17.5503C27.3347 17.6001 27.1507 17.7164 27.0338 17.8823C26.9502 18.0152 26.9 18.1811 26.9 18.3306C26.9 18.48 26.9669 18.6294 27.0672 18.7623C27.2177 18.9449 27.4182 19.0944 27.6356 19.2106C28.0231 19.41 28.419 19.5928 28.8223 19.7585C29.7249 20.0574 30.5941 20.4723 31.3965 20.9704C31.9481 21.3191 32.3994 21.784 32.7168 22.3486C32.9843 22.8798 33.118 23.4608 33.1014 24.0585C33.118 24.839 32.884 25.6193 32.4495 26.2668C31.9833 26.9295 31.3327 27.443 30.5774 27.7444C29.7583 28.093 28.7554 28.2758 27.5519 28.2758C26.7831 28.2758 26.0309 28.2093 25.2788 28.0599C24.6892 27.9587 24.1159 27.7801 23.5738 27.5286C23.4568 27.4622 23.3732 27.3459 23.3899 27.2131V24.3242C23.3899 24.2744 23.4066 24.208 23.4568 24.1748C23.5069 24.1417 23.5571 24.1582 23.6072 24.1915C24.2591 24.5733 24.9444 24.839 25.6799 25.0049C26.315 25.171 26.9837 25.2539 27.6522 25.2539C28.2875 25.2539 28.7388 25.171 29.0396 25.0216C29.307 24.9053 29.4909 24.6231 29.4909 24.3242C29.4909 24.0919 29.3571 23.876 29.0898 23.6601C28.8223 23.4443 28.2707 23.1953 27.4516 22.8798C26.6114 22.5857 25.8135 22.1839 25.0782 21.6844C24.5544 21.3136 24.1204 20.8314 23.8078 20.2731C23.5403 19.7419 23.4066 19.1608 23.4234 18.5796C23.4234 17.8658 23.624 17.185 23.9916 16.5708C24.4095 15.9066 25.028 15.3754 25.7467 15.0432C26.5324 14.6447 27.5185 14.4622 28.7052 14.4622C29.3907 14.4622 30.0927 14.512 30.778 14.6116C31.2794 14.6781 31.7641 14.8108 32.2154 14.9934C32.2823 15.0101 32.3492 15.0765 32.3826 15.1428C32.3994 15.2093 32.416 15.2758 32.416 15.3421V18.0484C32.416 18.1148 32.3826 18.1811 32.3325 18.2145C32.182 18.2476 32.0985 18.2476 32.0316 18.2145Z" fill="#31A8FF"/>
</svg>
