<svg width="30" height="30" viewBox="0 0 30 30" fill="none" xmlns="http://www.w3.org/2000/svg">
<rect width="30" height="30" rx="15" fill="#EB531F"/>
<path d="M8 10.75C8 11.2141 8.18437 11.6592 8.51256 11.9874C8.84075 12.3156 9.28587 12.5 9.75 12.5C10.2141 12.5 10.6592 12.3156 10.9874 11.9874C11.3156 11.6592 11.5 11.2141 11.5 10.75C11.5 10.2859 11.3156 9.84075 10.9874 9.51256C10.6592 9.18437 10.2141 9 9.75 9C9.28587 9 8.84075 9.18437 8.51256 9.51256C8.18437 9.84075 8 10.2859 8 10.75ZM13.25 21.25C13.25 21.7141 13.4344 22.1592 13.7626 22.4874C14.0908 22.8156 14.5359 23 15 23C15.4641 23 15.9092 22.8156 16.2374 22.4874C16.5656 22.1592 16.75 21.7141 16.75 21.25C16.75 20.7859 16.5656 20.3408 16.2374 20.0126C15.9092 19.6844 15.4641 19.5 15 19.5C14.5359 19.5 14.0908 19.6844 13.7626 20.0126C13.4344 20.3408 13.25 20.7859 13.25 21.25ZM13.25 16C13.25 16.4641 13.4344 16.9092 13.7626 17.2374C14.0908 17.5656 14.5359 17.75 15 17.75C15.4641 17.75 15.9092 17.5656 16.2374 17.2374C16.5656 16.9092 16.75 16.4641 16.75 16C16.75 15.5359 16.5656 15.0908 16.2374 14.7626C15.9092 14.4344 15.4641 14.25 15 14.25C14.5359 14.25 14.0908 14.4344 13.7626 14.7626C13.4344 15.0908 13.25 15.5359 13.25 16ZM13.25 10.75C13.25 11.2141 13.4344 11.6592 13.7626 11.9874C14.0908 12.3156 14.5359 12.5 15 12.5C15.4641 12.5 15.9092 12.3156 16.2374 11.9874C16.5656 11.6592 16.75 11.2141 16.75 10.75C16.75 10.2859 16.5656 9.84075 16.2374 9.51256C15.9092 9.18437 15.4641 9 15 9C14.5359 9 14.0908 9.18437 13.7626 9.51256C13.4344 9.84075 13.25 10.2859 13.25 10.75ZM18.5 10.75C18.5 11.2141 18.6844 11.6592 19.0126 11.9874C19.3408 12.3156 19.7859 12.5 20.25 12.5C20.7141 12.5 21.1592 12.3156 21.4874 11.9874C21.8156 11.6592 22 11.2141 22 10.75C22 10.2859 21.8156 9.84075 21.4874 9.51256C21.1592 9.18437 20.7141 9 20.25 9C19.7859 9 19.3408 9.18437 19.0126 9.51256C18.6844 9.84075 18.5 10.2859 18.5 10.75Z" fill="white"/>
</svg>
